<svg width="26" height="16" viewBox="0 0 26 16" fill="none" xmlns="http://www.w3.org/2000/svg">
<path fill-rule="evenodd" clip-rule="evenodd" d="M0.938537 8.08039C0.938537 7.84832 1.03072 7.62576 1.19482 7.46167C1.35891 7.29757 1.58147 7.20539 1.81354 7.20539L22.4513 7.20538L16.944 1.69989C16.7797 1.53558 16.6874 1.31274 16.6874 1.08039C16.6874 0.848027 16.7797 0.625186 16.944 0.460885C17.1083 0.296583 17.3312 0.20428 17.5635 0.20428C17.7959 0.20428 18.0187 0.296583 18.183 0.460885L25.183 7.46088C25.2645 7.54216 25.3292 7.63872 25.3733 7.74503C25.4174 7.85133 25.4401 7.96529 25.4401 8.08038C25.4401 8.19548 25.4174 8.30944 25.3733 8.41574C25.3292 8.52205 25.2645 8.6186 25.183 8.69988L18.183 15.6999C18.0187 15.8642 17.7959 15.9565 17.5635 15.9565C17.3312 15.9565 17.1083 15.8642 16.944 15.6999C16.7797 15.5356 16.6874 15.3127 16.6874 15.0804C16.6874 14.848 16.7797 14.6252 16.944 14.4609L22.4513 8.95538L1.81354 8.95539C1.58147 8.95539 1.35891 8.8632 1.19482 8.6991C1.03072 8.53501 0.938537 8.31245 0.938537 8.08039Z" fill="white"/>
</svg>
