<svg width="34" height="29" viewBox="0 0 34 29" fill="none" xmlns="http://www.w3.org/2000/svg">
<path d="M31.677 12.4286C32.2463 12.4286 32.7324 12.6309 33.1353 13.0354C33.5381 13.44 33.7395 13.9282 33.7395 14.5C33.7395 15.0718 33.5381 15.56 33.1353 15.9646C32.7324 16.3691 32.2463 16.5714 31.677 16.5714H31.4353L29.5823 27.2846C29.4963 27.7809 29.26 28.1908 28.8733 28.5145C28.4866 28.8382 28.0461 29 27.552 29H6.927C6.43286 29 5.99243 28.8382 5.60571 28.5145C5.21899 28.1908 4.98267 27.7809 4.89673 27.2846L3.0437 16.5714H2.802C2.23267 16.5714 1.74658 16.3691 1.34375 15.9646C0.940918 15.56 0.739502 15.0718 0.739502 14.5C0.739502 13.9282 0.940918 13.44 1.34375 13.0354C1.74658 12.6309 2.23267 12.4286 2.802 12.4286H31.677ZM8.55444 25.375C8.83374 25.3534 9.06738 25.232 9.25537 25.0109C9.44336 24.7897 9.52661 24.5389 9.50513 24.2584L8.9895 17.5262C8.96802 17.2457 8.84717 17.0111 8.62695 16.8223C8.40674 16.6335 8.15698 16.5499 7.87769 16.5714C7.59839 16.593 7.36475 16.7144 7.17676 16.9355C6.98877 17.1567 6.90552 17.4076 6.927 17.6881L7.44263 24.4202C7.46411 24.6899 7.57422 24.9165 7.77295 25.0999C7.97168 25.2833 8.20532 25.375 8.47388 25.375H8.55444ZM15.177 24.3393V17.6071C15.177 17.3266 15.075 17.0839 14.8708 16.8789C14.6667 16.6739 14.425 16.5714 14.1458 16.5714C13.8665 16.5714 13.6248 16.6739 13.4207 16.8789C13.2166 17.0839 13.1145 17.3266 13.1145 17.6071V24.3393C13.1145 24.6198 13.2166 24.8625 13.4207 25.0675C13.6248 25.2725 13.8665 25.375 14.1458 25.375C14.425 25.375 14.6667 25.2725 14.8708 25.0675C15.075 24.8625 15.177 24.6198 15.177 24.3393ZM21.3645 24.3393V17.6071C21.3645 17.3266 21.2625 17.0839 21.0583 16.8789C20.8542 16.6739 20.6125 16.5714 20.3333 16.5714C20.054 16.5714 19.8123 16.6739 19.6082 16.8789C19.4041 17.0839 19.302 17.3266 19.302 17.6071V24.3393C19.302 24.6198 19.4041 24.8625 19.6082 25.0675C19.8123 25.2725 20.054 25.375 20.3333 25.375C20.6125 25.375 20.8542 25.2725 21.0583 25.0675C21.2625 24.8625 21.3645 24.6198 21.3645 24.3393ZM27.0364 24.4202L27.552 17.6881C27.5735 17.4076 27.4902 17.1567 27.3022 16.9355C27.1143 16.7144 26.8806 16.593 26.6013 16.5714C26.322 16.5499 26.0723 16.6335 25.8521 16.8223C25.6318 17.0111 25.511 17.2457 25.4895 17.5262L24.9739 24.2584C24.9524 24.5389 25.0356 24.7897 25.2236 25.0109C25.4116 25.232 25.6453 25.3534 25.9246 25.375H26.0051C26.2737 25.375 26.5073 25.2833 26.7061 25.0999C26.9048 24.9165 27.0149 24.6899 27.0364 24.4202ZM8.40942 4.72545L6.91089 11.3929H4.78394L6.41138 4.25614C6.61548 3.30673 7.09351 2.53264 7.84546 1.93387C8.59741 1.3351 9.45679 1.03571 10.4236 1.03571H13.1145C13.1145 0.755208 13.2166 0.512463 13.4207 0.307478C13.6248 0.102493 13.8665 0 14.1458 0H20.3333C20.6125 0 20.8542 0.102493 21.0583 0.307478C21.2625 0.512463 21.3645 0.755208 21.3645 1.03571H24.0554C25.0222 1.03571 25.8816 1.3351 26.6335 1.93387C27.3855 2.53264 27.8635 3.30673 28.0676 4.25614L29.6951 11.3929H27.5681L26.0696 4.72545C25.9514 4.25074 25.707 3.86235 25.3364 3.56027C24.9658 3.25818 24.5388 3.10714 24.0554 3.10714H21.3645C21.3645 3.38765 21.2625 3.63039 21.0583 3.83538C20.8542 4.04036 20.6125 4.14286 20.3333 4.14286H14.1458C13.8665 4.14286 13.6248 4.04036 13.4207 3.83538C13.2166 3.63039 13.1145 3.38765 13.1145 3.10714H10.4236C9.94019 3.10714 9.51318 3.25818 9.14258 3.56027C8.77197 3.86235 8.52759 4.25074 8.40942 4.72545Z" fill="#08B931"/>
</svg>
