<svg width="15" height="19" viewBox="0 0 15 19" fill="none" xmlns="http://www.w3.org/2000/svg">
<path d="M7.27191 18.9734C6.00885 17.896 4.83811 16.7149 3.77191 15.4424C2.17191 13.5314 0.271912 10.6854 0.271912 7.97336C0.271219 6.58832 0.681421 5.2342 1.45061 4.08238C2.21979 2.93056 3.31338 2.03282 4.59298 1.50276C5.87258 0.972695 7.28066 0.834149 8.63903 1.10465C9.9974 1.37515 11.245 2.04254 12.2239 3.02236C12.8757 3.67122 13.3923 4.4429 13.7438 5.29273C14.0953 6.14257 14.2748 7.05369 14.2719 7.97336C14.2719 10.6854 12.3719 13.5314 10.7719 15.4424C9.70572 16.7149 8.53497 17.896 7.27191 18.9734ZM7.27191 4.97336C6.47626 4.97336 5.7132 5.28943 5.15059 5.85204C4.58798 6.41465 4.27191 7.17771 4.27191 7.97336C4.27191 8.76901 4.58798 9.53207 5.15059 10.0947C5.7132 10.6573 6.47626 10.9734 7.27191 10.9734C8.06756 10.9734 8.83062 10.6573 9.39323 10.0947C9.95584 9.53207 10.2719 8.76901 10.2719 7.97336C10.2719 7.17771 9.95584 6.41465 9.39323 5.85204C8.83062 5.28943 8.06756 4.97336 7.27191 4.97336Z" fill="#08B931"/>
</svg>
