<svg width="20" height="21" viewBox="0 0 20 21" fill="none" xmlns="http://www.w3.org/2000/svg">
<path d="M19.5249 16.9167L16.8461 19.7139C16.4507 20.1407 15.9265 20.2854 15.4161 20.286C13.1587 20.2148 11.025 19.0476 9.27305 17.8491C6.39737 15.6469 3.7588 12.9163 2.1028 9.61654C1.46766 8.23282 0.722414 6.46731 0.793616 4.92282C0.799966 4.34183 0.948704 3.77161 1.33743 3.39711L4.01621 0.578758C4.57246 0.0807084 5.1104 0.252908 5.46637 0.833042L7.62146 5.13474C7.84829 5.64436 7.71817 6.19039 7.37975 6.55454L6.39282 7.59287C6.3319 7.68072 6.2931 7.78072 6.29212 7.88956C6.67057 9.43159 7.81708 10.8529 8.8299 11.831C9.84272 12.8091 10.9314 14.1343 12.3445 14.448C12.5192 14.4993 12.7332 14.5173 12.8581 14.395L14.0062 13.166C14.402 12.8502 14.9734 12.6959 15.3959 12.9541H15.4161L19.3033 15.3698C19.874 15.7463 19.9335 16.474 19.5249 16.9167Z" fill="#08B931"/>
</svg>
